#Generated by Prefab3D 2.143, Sun Jul 21 15:22:21 GMT+0200 2024. www.closier.nl/prefab

mtllib low_station_cross.mtl
g cont
o cross
usemtl material
# Number of vertices: 132
v -26.895875930786133 21.885757446289063 6.489217758178711
v -26.895875930786133 -18.07904052734375 6.489217758178711
v -1.9125747680664063 21.885757446289063 -24.704082489013672
v -1.9125747680664063 21.885757446289063 -24.704082489013672
v -26.895875930786133 -18.07904052734375 6.489217758178711
v -1.9125747680664063 -18.07904052734375 -24.704082489013672
v 22.90792465209961 -18.07904052734375 -4.824782371520996
v -2.0753746032714844 -18.07904052734375 26.368515014648438
v 22.90792465209961 21.885757446289063 -4.824782371520996
v 22.90792465209961 21.885757446289063 -4.824782371520996
v -2.0753746032714844 -18.07904052734375 26.368515014648438
v -2.0753746032714844 21.885757446289063 26.368515014648438
v -1.8792762756347656 -51.68363952636719 -24.677383422851563
v -26.86257553100586 -51.68363952636719 6.515917778015137
v 22.876323699951172 -51.68363952636719 -4.8500823974609375
v 22.876323699951172 -51.68363952636719 -4.8500823974609375
v -26.86257553100586 -51.68363952636719 6.515917778015137
v -2.106975555419922 -51.68363952636719 26.343215942382813
v 19.12802505493164 21.885757446289063 -50.9063835144043
v 19.12802505493164 -18.07904052734375 -50.9063835144043
v 43.883724212646484 21.885757446289063 -31.079181671142578
v 43.883724212646484 21.885757446289063 -31.079181671142578
v 19.12802505493164 -18.07904052734375 -50.9063835144043
v 43.883724212646484 -18.07904052734375 -31.079181671142578
v -26.86257553100586 55.49046325683594 6.515917778015137
v -1.8792762756347656 55.49046325683594 -24.677383422851563
v -2.106975555419922 55.49046325683594 26.343215942382813
v -2.106975555419922 55.49046325683594 26.343215942382813
v -1.8792762756347656 55.49046325683594 -24.677383422851563
v 22.876422882080078 55.49046325683594 -4.8500823974609375
v -47.86997604370117 -18.07904052734375 32.745018005371094
v -47.869876861572266 21.885757446289063 32.745018005371094
v -23.114274978637695 -18.07904052734375 52.57221603393555
v -23.114274978637695 -18.07904052734375 52.57221603393555
v -47.869876861572266 21.885757446289063 32.745018005371094
v -23.114274978637695 21.885757446289063 52.57221603393555
v -1.9125747680664063 -18.07904052734375 -24.704082489013672
v -26.895875930786133 -18.07904052734375 6.489217758178711
v -1.8792762756347656 -51.68363952636719 -24.677383422851563
v -1.8792762756347656 -51.68363952636719 -24.677383422851563
v -26.895875930786133 -18.07904052734375 6.489217758178711
v -26.86257553100586 -51.68363952636719 6.515917778015137
v 22.90792465209961 -18.07904052734375 -4.824782371520996
v -1.9125747680664063 -18.07904052734375 -24.704082489013672
v 22.876323699951172 -51.68363952636719 -4.8500823974609375
v 22.876323699951172 -51.68363952636719 -4.8500823974609375
v -1.9125747680664063 -18.07904052734375 -24.704082489013672
v -1.8792762756347656 -51.68363952636719 -24.677383422851563
v -2.0753746032714844 -18.07904052734375 26.368515014648438
v 22.90792465209961 -18.07904052734375 -4.824782371520996
v -2.106975555419922 -51.68363952636719 26.343215942382813
v -2.106975555419922 -51.68363952636719 26.343215942382813
v 22.90792465209961 -18.07904052734375 -4.824782371520996
v 22.876323699951172 -51.68363952636719 -4.8500823974609375
v -26.895875930786133 -18.07904052734375 6.489217758178711
v -2.0753746032714844 -18.07904052734375 26.368515014648438
v -26.86257553100586 -51.68363952636719 6.515917778015137
v -26.86257553100586 -51.68363952636719 6.515917778015137
v -2.0753746032714844 -18.07904052734375 26.368515014648438
v -2.106975555419922 -51.68363952636719 26.343215942382813
v -1.9125747680664063 21.885757446289063 -24.704082489013672
v -1.9125747680664063 -18.07904052734375 -24.704082489013672
v 19.12802505493164 21.885757446289063 -50.9063835144043
v 19.12802505493164 21.885757446289063 -50.9063835144043
v -1.9125747680664063 -18.07904052734375 -24.704082489013672
v 19.12802505493164 -18.07904052734375 -50.9063835144043
v 22.90792465209961 21.885757446289063 -4.824782371520996
v -1.9125747680664063 21.885757446289063 -24.704082489013672
v 43.883724212646484 21.885757446289063 -31.079181671142578
v 43.883724212646484 21.885757446289063 -31.079181671142578
v -1.9125747680664063 21.885757446289063 -24.704082489013672
v 19.12802505493164 21.885757446289063 -50.9063835144043
v 22.90792465209961 -18.07904052734375 -4.824782371520996
v 22.90792465209961 21.885757446289063 -4.824782371520996
v 43.883724212646484 -18.07904052734375 -31.079181671142578
v 43.883724212646484 -18.07904052734375 -31.079181671142578
v 22.90792465209961 21.885757446289063 -4.824782371520996
v 43.883724212646484 21.885757446289063 -31.079181671142578
v -1.9125747680664063 -18.07904052734375 -24.704082489013672
v 22.90792465209961 -18.07904052734375 -4.824782371520996
v 19.12802505493164 -18.07904052734375 -50.9063835144043
v 19.12802505493164 -18.07904052734375 -50.9063835144043
v 22.90792465209961 -18.07904052734375 -4.824782371520996
v 43.883724212646484 -18.07904052734375 -31.079181671142578
v -26.895875930786133 21.885757446289063 6.489217758178711
v -1.9125747680664063 21.885757446289063 -24.704082489013672
v -26.86257553100586 55.49046325683594 6.515917778015137
v -26.86257553100586 55.49046325683594 6.515917778015137
v -1.9125747680664063 21.885757446289063 -24.704082489013672
v -1.8792762756347656 55.49046325683594 -24.677383422851563
v -2.0753746032714844 21.885757446289063 26.368515014648438
v -26.895875930786133 21.885757446289063 6.489217758178711
v -2.106975555419922 55.49046325683594 26.343215942382813
v -2.106975555419922 55.49046325683594 26.343215942382813
v -26.895875930786133 21.885757446289063 6.489217758178711
v -26.86257553100586 55.49046325683594 6.515917778015137
v 22.90792465209961 21.885757446289063 -4.824782371520996
v -2.0753746032714844 21.885757446289063 26.368515014648438
v 22.876422882080078 55.49046325683594 -4.8500823974609375
v 22.876422882080078 55.49046325683594 -4.8500823974609375
v -2.0753746032714844 21.885757446289063 26.368515014648438
v -2.106975555419922 55.49046325683594 26.343215942382813
v -1.9125747680664063 21.885757446289063 -24.704082489013672
v 22.90792465209961 21.885757446289063 -4.824782371520996
v -1.8792762756347656 55.49046325683594 -24.677383422851563
v -1.8792762756347656 55.49046325683594 -24.677383422851563
v 22.90792465209961 21.885757446289063 -4.824782371520996
v 22.876422882080078 55.49046325683594 -4.8500823974609375
v -26.895875930786133 -18.07904052734375 6.489217758178711
v -26.895875930786133 21.885757446289063 6.489217758178711
v -47.86997604370117 -18.07904052734375 32.745018005371094
v -47.86997604370117 -18.07904052734375 32.745018005371094
v -26.895875930786133 21.885757446289063 6.489217758178711
v -47.869876861572266 21.885757446289063 32.745018005371094
v -2.0753746032714844 -18.07904052734375 26.368515014648438
v -26.895875930786133 -18.07904052734375 6.489217758178711
v -23.114274978637695 -18.07904052734375 52.57221603393555
v -23.114274978637695 -18.07904052734375 52.57221603393555
v -26.895875930786133 -18.07904052734375 6.489217758178711
v -47.86997604370117 -18.07904052734375 32.745018005371094
v -2.0753746032714844 21.885757446289063 26.368515014648438
v -2.0753746032714844 -18.07904052734375 26.368515014648438
v -23.114274978637695 21.885757446289063 52.57221603393555
v -23.114274978637695 21.885757446289063 52.57221603393555
v -2.0753746032714844 -18.07904052734375 26.368515014648438
v -23.114274978637695 -18.07904052734375 52.57221603393555
v -26.895875930786133 21.885757446289063 6.489217758178711
v -2.0753746032714844 21.885757446289063 26.368515014648438
v -47.869876861572266 21.885757446289063 32.745018005371094
v -47.869876861572266 21.885757446289063 32.745018005371094
v -2.0753746032714844 21.885757446289063 26.368515014648438
v -23.114274978637695 21.885757446289063 52.57221603393555

# Number of normals: 132
vn -0.780914306640625 0.0003204345703125 -0.624636173248291
vn -0.7806777954101563 -0.0005035400390625 -0.624934196472168
vn -0.7803611755371094 0.0005035400390625 -0.6253304481506348
vn -0.7803611755371094 0.0005035400390625 -0.6253304481506348
vn -0.7806777954101563 -0.0005035400390625 -0.624934196472168
vn -0.780120849609375 -0.0003204345703125 -0.6256275177001953
vn 0.7807083129882813 -0.0005950927734375 0.6248970031738281
vn 0.7802162170410156 -0.000244140625 0.6255083084106445
vn 0.7808189392089844 0.000244140625 0.624755859375
vn 0.7808189392089844 0.000244140625 0.624755859375
vn 0.7802162170410156 -0.000244140625 0.6255083084106445
vn 0.7803306579589844 0.0005950927734375 0.6253671646118164
vn 0 -1 0
vn 0 -1 0
vn 0 -1 0
vn 0 -1 0
vn 0 -1 0
vn 0 -1 0
vn 0.6251296997070313 0 -0.7805204391479492
vn 0.6251296997070313 0 -0.7805204391479492
vn 0.6251296997070313 0 -0.7805204391479492
vn 0.6251296997070313 0 -0.7805204391479492
vn 0.6251296997070313 0 -0.7805204391479492
vn 0.6251296997070313 0 -0.7805204391479492
vn 0 1 0
vn 0 1 0
vn 0 1 0
vn 0 1 0
vn 0 1 0
vn 0 1 0
vn -0.6251296997070313 0 0.7805204391479492
vn -0.6251296997070313 0 0.7805194854736328
vn -0.6251296997070313 0 0.7805194854736328
vn -0.6251296997070313 0 0.7805194854736328
vn -0.6251296997070313 0 0.7805194854736328
vn -0.6251335144042969 0 0.7805194854736328
vn -0.780120849609375 -0.0003204345703125 -0.6256275177001953
vn -0.7806777954101563 -0.0005035400390625 -0.624934196472168
vn -0.780517578125 -0.0012664794921875 -0.6251316070556641
vn -0.780517578125 -0.0012664794921875 -0.6251316070556641
vn -0.7806777954101563 -0.0005035400390625 -0.624934196472168
vn -0.780517578125 -0.0012664794921875 -0.6251316070556641
vn 0.6251335144042969 0 -0.780517578125
vn 0.6251335144042969 0 -0.780517578125
vn 0.6251335144042969 0 -0.780517578125
vn 0.6251335144042969 0 -0.780517578125
vn 0.6251335144042969 0 -0.780517578125
vn 0.6251335144042969 0 -0.780517578125
vn 0.7802162170410156 -0.000244140625 0.6255083084106445
vn 0.7807083129882813 -0.0005950927734375 0.6248970031738281
vn 0.780517578125 -0.0012054443359375 0.6251316070556641
vn 0.780517578125 -0.0012054443359375 0.6251316070556641
vn 0.7807083129882813 -0.0005950927734375 0.6248970031738281
vn 0.780517578125 -0.0012054443359375 0.6251316070556641
vn -0.6251335144042969 0 0.780517578125
vn -0.6251335144042969 0 0.780517578125
vn -0.6251335144042969 0 0.780517578125
vn -0.6251335144042969 0 0.780517578125
vn -0.6251335144042969 0 0.780517578125
vn -0.6251335144042969 0 0.780517578125
vn -0.7803611755371094 0.0005035400390625 -0.6253304481506348
vn -0.780120849609375 -0.0003204345703125 -0.6256275177001953
vn -0.77972412109375 0 -0.6261229515075684
vn -0.77972412109375 0 -0.6261229515075684
vn -0.780120849609375 -0.0003204345703125 -0.6256275177001953
vn -0.77972412109375 0 -0.6261229515075684
vn 0 1 0
vn 0 1 0
vn 0 1 0
vn 0 1 0
vn 0 1 0
vn 0 1 0
vn 0.7807083129882813 -0.0005950927734375 0.6248970031738281
vn 0.7808189392089844 0.000244140625 0.624755859375
vn 0.7812728881835938 0 0.6241922378540039
vn 0.7812728881835938 0 0.6241922378540039
vn 0.7808189392089844 0.000244140625 0.624755859375
vn 0.7812728881835938 0 0.6241922378540039
vn 0 -1 0
vn 0 -1 0
vn 0 -1 0
vn 0 -1 0
vn 0 -1 0
vn 0 -1 0
vn -0.780914306640625 0.0003204345703125 -0.624636173248291
vn -0.7803611755371094 0.0005035400390625 -0.6253304481506348
vn -0.780517578125 0.0012664794921875 -0.6251316070556641
vn -0.780517578125 0.0012664794921875 -0.6251316070556641
vn -0.7803611755371094 0.0005035400390625 -0.6253304481506348
vn -0.780517578125 0.0012664794921875 -0.6251316070556641
vn -0.6251335144042969 0 0.780517578125
vn -0.6251335144042969 0 0.780517578125
vn -0.6251335144042969 0 0.780517578125
vn -0.6251335144042969 0 0.780517578125
vn -0.6251335144042969 0 0.780517578125
vn -0.6251335144042969 0 0.780517578125
vn 0.7808189392089844 0.000244140625 0.624755859375
vn 0.7803306579589844 0.0005950927734375 0.6253671646118164
vn 0.780517578125 0.0012054443359375 0.6251325607299805
vn 0.780517578125 0.0012054443359375 0.6251325607299805
vn 0.7803306579589844 0.0005950927734375 0.6253671646118164
vn 0.780517578125 0.0012054443359375 0.6251335144042969
vn 0.6251335144042969 0 -0.780517578125
vn 0.6251335144042969 0 -0.7805180549621582
vn 0.6251335144042969 0 -0.7805180549621582
vn 0.6251335144042969 0 -0.7805180549621582
vn 0.6251335144042969 0 -0.7805180549621582
vn 0.6251335144042969 0 -0.7805190086364746
vn -0.7806777954101563 -0.0005035400390625 -0.624934196472168
vn -0.780914306640625 0.0003204345703125 -0.624636173248291
vn -0.78131103515625 0 -0.6241397857666016
vn -0.78131103515625 0 -0.6241397857666016
vn -0.780914306640625 0.0003204345703125 -0.624636173248291
vn -0.7813148498535156 0 -0.6241388320922852
vn 0 -1 0
vn 0 -1 0
vn 0 -1 0
vn 0 -1 0
vn 0 -1 0
vn 0 -1 0
vn 0.7803306579589844 0.0005950927734375 0.6253671646118164
vn 0.7802162170410156 -0.000244140625 0.6255083084106445
vn 0.7797660827636719 0 0.6260719299316406
vn 0.7797660827636719 0 0.6260719299316406
vn 0.7802162170410156 -0.000244140625 0.6255083084106445
vn 0.7797660827636719 0 0.6260719299316406
vn 0 1 0
vn 0 1 0
vn 0 1 0
vn 0 1 0
vn 0 1 0
vn 0 1 0

# Number of texture vertices: 132
vt 0.4417000114917755 0.8316999971866608
vt 0.4417000114917755 0.8683000057935715
vt 0.4781999886035919 0.8316999971866608
vt 0.4781999886035919 0.8316999971866608
vt 0.4417000114917755 0.8683000057935715
vt 0.4781999886035919 0.8683000057935715
vt 0.4781999886035919 0.8316999971866608
vt 0.4417000114917755 0.8316999971866608
vt 0.4781999886035919 0.8683000057935715
vt 0.4781999886035919 0.8683000057935715
vt 0.4417000114917755 0.8316999971866608
vt 0.4417000114917755 0.8683000057935715
vt 0.40720000863075256 0.7697000056505203
vt 0.37059998512268066 0.7697000056505203
vt 0.40720000863075256 0.7987000048160553
vt 0.40720000863075256 0.7987000048160553
vt 0.37059998512268066 0.7697000056505203
vt 0.37059998512268066 0.7987000048160553
vt 0.37059998512268066 0.7987000048160553
vt 0.40720000863075256 0.7987000048160553
vt 0.37059998512268066 0.7697000056505203
vt 0.37059998512268066 0.7697000056505203
vt 0.40720000863075256 0.7987000048160553
vt 0.40720000863075256 0.7697000056505203
vt 0.37059998512268066 0.7987000048160553
vt 0.40720000863075256 0.7987000048160553
vt 0.37059998512268066 0.7697000056505203
vt 0.37059998512268066 0.7697000056505203
vt 0.40720000863075256 0.7987000048160553
vt 0.40720000863075256 0.7697000056505203
vt 0.40720000863075256 0.7697000056505203
vt 0.37059998512268066 0.7697000056505203
vt 0.40720000863075256 0.7987000048160553
vt 0.40720000863075256 0.7987000048160553
vt 0.37059998512268066 0.7697000056505203
vt 0.37059998512268066 0.7987000048160553
vt 0.4781999886035919 0.8683000057935715
vt 0.4417000114917755 0.8683000057935715
vt 0.4781999886035919 0.898999996483326
vt 0.4781999886035919 0.898999996483326
vt 0.4417000114917755 0.8683000057935715
vt 0.4417000114917755 0.898999996483326
vt 0.4472000002861023 0.9136999994516373
vt 0.47620001435279846 0.9136999994516373
vt 0.4472000002861023 0.9444999992847443
vt 0.4472000002861023 0.9444999992847443
vt 0.47620001435279846 0.9136999994516373
vt 0.47620001435279846 0.9444999992847443
vt 0.4417000114917755 0.8316999971866608
vt 0.4781999886035919 0.8316999971866608
vt 0.4417000114917755 0.8009999990463257
vt 0.4417000114917755 0.8009999990463257
vt 0.4781999886035919 0.8316999971866608
vt 0.4781999886035919 0.8009999990463257
vt 0.47620001435279846 0.9136999994516373
vt 0.4472000002861023 0.9136999994516373
vt 0.47620001435279846 0.9444999992847443
vt 0.47620001435279846 0.9444999992847443
vt 0.4472000002861023 0.9136999994516373
vt 0.4472000002861023 0.9444999992847443
vt 0.4781999886035919 0.8316999971866608
vt 0.4781999886035919 0.8683000057935715
vt 0.508899986743927 0.8316999971866608
vt 0.508899986743927 0.8316999971866608
vt 0.4781999886035919 0.8683000057935715
vt 0.508899986743927 0.8683000057935715
vt 0.4472000002861023 0.9136999994516373
vt 0.47620001435279846 0.9136999994516373
vt 0.4472000002861023 0.9444999992847443
vt 0.4472000002861023 0.9444999992847443
vt 0.47620001435279846 0.9136999994516373
vt 0.47620001435279846 0.9444999992847443
vt 0.4781999886035919 0.8316999971866608
vt 0.4781999886035919 0.8683000057935715
vt 0.508899986743927 0.8316999971866608
vt 0.508899986743927 0.8316999971866608
vt 0.4781999886035919 0.8683000057935715
vt 0.508899986743927 0.8683000057935715
vt 0.47620001435279846 0.9136999994516373
vt 0.4472000002861023 0.9136999994516373
vt 0.47620001435279846 0.9444999992847443
vt 0.47620001435279846 0.9444999992847443
vt 0.4472000002861023 0.9136999994516373
vt 0.4472000002861023 0.9444999992847443
vt 0.4417000114917755 0.8316999971866608
vt 0.4781999886035919 0.8316999971866608
vt 0.4417000114917755 0.8009999990463257
vt 0.4417000114917755 0.8009999990463257
vt 0.4781999886035919 0.8316999971866608
vt 0.4781999886035919 0.8009999990463257
vt 0.4472000002861023 0.9136999994516373
vt 0.47620001435279846 0.9136999994516373
vt 0.4472000002861023 0.9444999992847443
vt 0.4472000002861023 0.9444999992847443
vt 0.47620001435279846 0.9136999994516373
vt 0.47620001435279846 0.9444999992847443
vt 0.4781999886035919 0.8683000057935715
vt 0.4417000114917755 0.8683000057935715
vt 0.4781999886035919 0.898999996483326
vt 0.4781999886035919 0.898999996483326
vt 0.4417000114917755 0.8683000057935715
vt 0.4417000114917755 0.898999996483326
vt 0.47620001435279846 0.9136999994516373
vt 0.4472000002861023 0.9136999994516373
vt 0.47620001435279846 0.9444999992847443
vt 0.47620001435279846 0.9444999992847443
vt 0.4472000002861023 0.9136999994516373
vt 0.4472000002861023 0.9444999992847443
vt 0.4417000114917755 0.8683000057935715
vt 0.4417000114917755 0.8316999971866608
vt 0.41100001335144043 0.8683000057935715
vt 0.41100001335144043 0.8683000057935715
vt 0.4417000114917755 0.8316999971866608
vt 0.41100001335144043 0.8316999971866608
vt 0.4472000002861023 0.9136999994516373
vt 0.47620001435279846 0.9136999994516373
vt 0.4472000002861023 0.9444999992847443
vt 0.4472000002861023 0.9444999992847443
vt 0.47620001435279846 0.9136999994516373
vt 0.47620001435279846 0.9444999992847443
vt 0.4417000114917755 0.8683000057935715
vt 0.4417000114917755 0.8316999971866608
vt 0.41100001335144043 0.8683000057935715
vt 0.41100001335144043 0.8683000057935715
vt 0.4417000114917755 0.8316999971866608
vt 0.41100001335144043 0.8316999971866608
vt 0.47620001435279846 0.9136999994516373
vt 0.4472000002861023 0.9136999994516373
vt 0.47620001435279846 0.9444999992847443
vt 0.47620001435279846 0.9444999992847443
vt 0.4472000002861023 0.9136999994516373
vt 0.4472000002861023 0.9444999992847443

# Number of polygons: 44
f 2/2/2 1/1/1 3/3/3
f 5/5/5 4/4/4 6/6/6
f 8/8/8 7/7/7 9/9/9
f 11/11/11 10/10/10 12/12/12
f 14/14/14 13/13/13 15/15/15
f 17/17/17 16/16/16 18/18/18
f 20/20/20 19/19/19 21/21/21
f 23/23/23 22/22/22 24/24/24
f 26/26/26 25/25/25 27/27/27
f 29/29/29 28/28/28 30/30/30
f 32/32/32 31/31/31 33/33/33
f 35/35/35 34/34/34 36/36/36
f 38/38/38 37/37/37 39/39/39
f 41/41/41 40/40/40 42/42/42
f 44/44/44 43/43/43 45/45/45
f 47/47/47 46/46/46 48/48/48
f 50/50/50 49/49/49 51/51/51
f 53/53/53 52/52/52 54/54/54
f 56/56/56 55/55/55 57/57/57
f 59/59/59 58/58/58 60/60/60
f 62/62/62 61/61/61 63/63/63
f 65/65/65 64/64/64 66/66/66
f 68/68/68 67/67/67 69/69/69
f 71/71/71 70/70/70 72/72/72
f 74/74/74 73/73/73 75/75/75
f 77/77/77 76/76/76 78/78/78
f 80/80/80 79/79/79 81/81/81
f 83/83/83 82/82/82 84/84/84
f 86/86/86 85/85/85 87/87/87
f 89/89/89 88/88/88 90/90/90
f 92/92/92 91/91/91 93/93/93
f 95/95/95 94/94/94 96/96/96
f 98/98/98 97/97/97 99/99/99
f 101/101/101 100/100/100 102/102/102
f 104/104/104 103/103/103 105/105/105
f 107/107/107 106/106/106 108/108/108
f 110/110/110 109/109/109 111/111/111
f 113/113/113 112/112/112 114/114/114
f 116/116/116 115/115/115 117/117/117
f 119/119/119 118/118/118 120/120/120
f 122/122/122 121/121/121 123/123/123
f 125/125/125 124/124/124 126/126/126
f 128/128/128 127/127/127 129/129/129
f 131/131/131 130/130/130 132/132/132


# Total number of vertices: 132
# Total number of normals: 132
# Total number of texture vertices: 132
# Total number of polygons: 44
# End of File